PathFileType	4	(X/Y/Z)	D:\Share\Shared_Data\Ergonomics\Sit To Stand Pertubation\S3\Perturbed.trc
DataRate	CameraRate	NumFrames	NumMarkers	Units	OrigDataRate	OrigDataStartFrame	OrigNumFrames	
100	100	15	18	m	100	6245	251
Frame#	Time	R_ASIS			R_Pelvis			V_Sacral			L_Pelvis			L_ASIS			Clavical			R_Acromium			L_Acromium			Sternum			Torso			R_Thigh_Med			R_Thigh_Lat			R_Thigh			R_Shank_Med			R_Shank_Lat			R_Shank			R_Heel			R_Toe			
		X1	Y1	Z1	X2	Y2	Z2	X3	Y3	Z3	X4	Y4	Z4	X5	Y5	Z5	X6	Y6	Z6	X7	Y7	Z7	X8	Y8	Z8	X9	Y9	Z9	X10	Y10	Z10	X11	Y11	Z11	X12	Y12	Z12	X13	Y13	Z13	X14	Y14	Z14	X15	Y15	Z15	X16	Y16	Z16	X17	Y17	Z17	X18	Y18	Z18	

6245	62.44	0.013961184	0.64460284	0.14956259	-0.095290878	0.6272652	0.20403033	-0.204334	0.62232526	0.017635405	-0.09267244	0.6469079	-0.18449422	0.014593494	0.64069562	-0.1315368	-0.031605751	1.0411296	-9.3924977e-05	-0.090916229	1.1009735	0.17209982	-0.076203201	1.0949424	-0.15475082	-0.0026430824	0.96905389	0.0091862135	-0.024896927	1.027998	-0.061629303	0.36107993	0.47000845	0.063159138	0.34976855	0.45250848	0.18224641	0.17873877	0.57931647	0.10719084	0.30405847	0.10712131	0.0950121	0.29177722	0.094659286	0.17627045	0.30371918	0.27472885	0.19571205	0.23176965	0.058301243	0.13847394	0.44790018	0.056465851	0.11557672
6246	62.45	0.013831043	0.6445426	0.14960303	-0.095404259	0.62723004	0.20410947	-0.20438689	0.62237457	0.017696754	-0.092761864	0.64696753	-0.18442242	0.014474858	0.64074542	-0.13145082	-0.030858253	1.0409875	-2.5913546e-05	-0.090185219	1.1011365	0.17203491	-0.075235825	1.0947701	-0.15479953	-0.002116559	0.96884467	0.0093329515	-0.024193443	1.0278517	-0.061535347	0.361005	0.47003006	0.063187248	0.3497009	0.45252496	0.18227228	0.17864272	0.57934442	0.10725134	0.30406815	0.10713334	0.09504184	0.29178748	0.094664093	0.17630186	0.30366885	0.27473627	0.19572762	0.23176421	0.058302162	0.13848224	0.44789832	0.056462154	0.11557796
6247	62.46	0.01370265	0.64447687	0.14964505	-0.095525375	0.62718756	0.20418619	-0.20443726	0.62242432	0.017754148	-0.092842735	0.64702094	-0.18434521	0.014364485	0.64079395	-0.13135287	-0.030029865	1.040832	4.5589354e-05	-0.089354729	1.1012927	0.17197005	-0.0741735	1.0945975	-0.15483693	-0.001531257	0.96860669	0.0094799328	-0.023410503	1.027679	-0.061439209	0.36092899	0.47005164	0.063218513	0.34963672	0.45254153	0.18230214	0.17855307	0.57937915	0.10732203	0.30407965	0.1071468	0.095070648	0.29180716	0.094658127	0.17633522	0.30362305	0.27474338	0.19574815	0.23176054	0.058304783	0.13849146	0.44789749	0.056457935	0.11557993
6248	62.47	0.013579656	0.6444071	0.14968994	-0.095652756	0.62713965	0.20425888	-0.20448503	0.62247577	0.017805674	-0.092915359	0.64706769	-0.1842661	0.014262284	0.64084106	-0.13124414	-0.029115675	1.0406636	0.00011951356	-0.088415108	1.1014369	0.17190631	-0.073008591	1.0944249	-0.15486	-0.00088443393	0.9683374	0.0096236601	-0.022538828	1.0274777	-0.061342789	0.36085141	0.47007559	0.063254341	0.34957391	0.45255768	0.18233716	0.17846996	0.57942029	0.10740313	0.30409171	0.10716107	0.095097786	0.29183484	0.094642448	0.17637029	0.30358133	0.27474847	0.19577559	0.23175818	0.058308792	0.13850127	0.44789792	0.05645396	0.11558218
6249	62.48	0.013465149	0.64433368	0.14973878	-0.095783371	0.62708966	0.20432626	-0.20453001	0.62253156	0.017850216	-0.092980179	0.64710828	-0.18418845	0.014168476	0.6408858	-0.13112762	-0.028111649	1.0404824	0.00019532529	-0.087358452	1.101564	0.17184467	-0.07173764	1.0942529	-0.15486998	-0.000173135	0.96803571	0.0097605085	-0.021571575	1.0272471	-0.06124773	0.36077274	0.47010428	0.063297382	0.34950955	0.45257254	0.18237889	0.17839258	0.57946667	0.1074938	0.30410291	0.10717558	0.09512291	0.29186697	0.094621529	0.17640704	0.30354297	0.27474976	0.19581142	0.23175659	0.058313919	0.1385114	0.44789993	0.056451317	0.11558418
6250	62.49	0.01336134	0.64425665	0.14979176	-0.095913307	0.62704144	0.20438702	-0.20457161	0.6225954	0.017887125	-0.093037506	0.64714423	-0.18411519	0.014083948	0.6409259	-0.13100871	-0.027014391	1.0402878	0.00027346915	-0.086179024	1.1016715	0.17178639	-0.070360954	1.0940834	-0.15487082	0.00060521853	0.96770288	0.0098868427	-0.020504787	1.0269893	-0.061154758	0.36069391	0.47014011	0.063351074	0.34944025	0.45258521	0.18242902	0.17831961	0.57951678	0.10759245	0.30411203	0.10718981	0.095145836	0.29189957	0.094599808	0.17644542	0.30350739	0.27474622	0.19585661	0.23175552	0.058320023	0.13852153	0.44790356	0.056450939	0.11558551
6251	62.5	0.013269947	0.64417603	0.14984801	-0.096038452	0.62699945	0.20443999	-0.20460898	0.62267181	0.01791585	-0.093087227	0.64717786	-0.18404897	0.014010507	0.64095789	-0.13089445	-0.02582095	1.0400789	0.00035482818	-0.084873116	1.1017583	0.17173262	-0.068879631	1.0939181	-0.1548674	0.0014526461	0.96734076	0.0099997082	-0.019337402	1.0267064	-0.061063778	0.36061545	0.47018527	0.063418694	0.34936276	0.45259503	0.18248917	0.17824924	0.57956812	0.10769701	0.30411813	0.1072035	0.095166573	0.29192917	0.094580566	0.1764845	0.30347339	0.27473767	0.19591162	0.23175493	0.058327099	0.13853157	0.44790851	0.05645327	0.11558606
6252	62.51	0.013192774	0.64409155	0.1499055	-0.096154968	0.6269679	0.20448465	-0.20464133	0.62276605	0.017935892	-0.093128487	0.6472124	-0.18399219	0.013950953	0.64097839	-0.13079242	-0.024528532	1.0398536	0.00043979073	-0.083437881	1.1018245	0.17168373	-0.067292694	1.0937577	-0.15486247	0.0023709443	0.96694995	0.010097342	-0.018070457	1.0264001	-0.060974941	0.36053705	0.47024136	0.063502327	0.34927435	0.45260178	0.18256068	0.17817909	0.57961841	0.10780521	0.30412061	0.10721654	0.095185562	0.29195261	0.094567673	0.17652222	0.30343936	0.27472498	0.19597658	0.23175482	0.058335129	0.13854147	0.44791409	0.056458191	0.11558599
6253	62.52	0.013131675	0.64400305	0.14996095	-0.09625956	0.62695184	0.20452164	-0.20466812	0.62288312	0.017946848	-0.093159706	0.64725079	-0.18394713	0.013909063	0.64098511	-0.13070961	-0.023133989	1.0396095	0.00052806544	-0.081870026	1.101871	0.17163986	-0.065596413	1.0936007	-0.15485457	0.0033624098	0.96652936	0.010179049	-0.016705637	1.0260697	-0.060889557	0.36045718	0.47030786	0.063602455	0.34917313	0.45260562	0.18264421	0.17810664	0.57966565	0.10791468	0.30411905	0.10722885	0.095203926	0.29196518	0.09456765	0.17655704	0.3034035	0.27470914	0.19605174	0.23175499	0.058343807	0.13855139	0.44791934	0.056465248	0.11558578
6254	62.53	0.013087989	0.64391101	0.15000977	-0.09634977	0.62695557	0.20455231	-0.20468922	0.62302728	0.017948221	-0.093178627	0.6472962	-0.18391574	0.01388946	0.64097839	-0.13065144	-0.021633596	1.0393436	0.00061890841	-0.080165298	1.1018988	0.17160109	-0.063786327	1.0934454	-0.15483878	0.0044302893	0.96607733	0.01024484	-0.01524385	1.0257131	-0.060809959	0.36037344	0.47038104	0.063718102	0.34905771	0.45260687	0.18273975	0.17802945	0.57970874	0.108023	0.3041134	0.10724051	0.095223366	0.29195966	0.094590607	0.17658885	0.30336429	0.27469168	0.19613751	0.2317547	0.058352325	0.13856155	0.44792322	0.056473881	0.11558616
6255	62.54	0.013062273	0.64381641	0.15004674	-0.096423927	0.62698346	0.20457809	-0.2047049	0.62320074	0.017939089	-0.0931828	0.64735089	-0.18389923	0.013897518	0.64096094	-0.13062108	-0.020023115	1.0390525	0.00071071923	-0.078318626	1.1019082	0.17156778	-0.061859032	1.0932877	-0.15481117	0.0055788436	0.96559247	0.010295468	-0.013684964	1.0253271	-0.060738609	0.36028296	0.47045407	0.063847103	0.34892755	0.45260608	0.18284656	0.17794492	0.57974664	0.10812792	0.30410403	0.1072519	0.095245735	0.291927	0.094649658	0.17661797	0.30332074	0.27467395	0.19623416	0.23175282	0.058359447	0.1385722	0.44792456	0.056483475	0.11558794
6256	62.55	0.013054925	0.64372107	0.15006743	-0.096481339	0.62703833	0.20459984	-0.20471588	0.62340356	0.017918232	-0.093169975	0.64741638	-0.18389764	0.013938986	0.64093713	-0.130619	-0.018297707	1.0387328	0.00080141175	-0.076323967	1.1018987	0.17154071	-0.059811787	1.0931226	-0.15477129	0.0068132653	0.96507367	0.010332414	-0.012027709	1.0249091	-0.06067683	0.36018338	0.47051849	0.063987061	0.34878311	0.45260388	0.18296338	0.17785057	0.57977881	0.10822767	0.30409174	0.10726375	0.095272339	0.29185876	0.09475972	0.1766433	0.30327243	0.27465729	0.19634128	0.23174808	0.058363968	0.13858345	0.44792224	0.056493488	0.1155918
6257	62.56	0.013067235	0.6436272	0.15007043	-0.096522331	0.62712146	0.20461707	-0.20472313	0.62363354	0.017884678	-0.09313858	0.64749249	-0.18390947	0.014018858	0.640914	-0.13064328	-0.016452196	1.0383798	0.00089012009	-0.074173378	1.1018676	0.17152097	-0.057640877	1.0929443	-0.15472177	0.0081393986	0.9645199	0.010357371	-0.010268372	1.0244559	-0.060623795	0.36007419	0.47056644	0.064136726	0.34862601	0.45260162	0.18308849	0.17774464	0.57980481	0.10832116	0.30407736	0.10727678	0.095303566	0.29174844	0.094935013	0.17666237	0.30321884	0.27464264	0.19645705	0.23173946	0.058365173	0.13859525	0.44791541	0.056503632	0.11559803
6258	62.57	0.013101606	0.64353766	0.150058	-0.096548157	0.62723169	0.20462796	-0.20472749	0.62388757	0.017838148	-0.093088081	0.64757819	-0.18393208	0.014139999	0.64090082	-0.1306898	-0.014481293	1.0379901	0.0009770534	-0.07185672	1.1018119	0.1715101	-0.05533926	1.0927485	-0.15466837	0.0095635147	0.9639306	0.010371987	-0.0084003925	1.0239673	-0.060576778	0.3599567	0.47059192	0.064296951	0.34845871	0.45260135	0.18321977	0.17762628	0.57982501	0.10840778	0.30406155	0.10729128	0.095338844	0.29159341	0.095184532	0.17667406	0.30315915	0.27463055	0.19657816	0.23172664	0.058362862	0.13860712	0.44790353	0.056513866	0.11560641
6259	62.58	0.013160639	0.64345453	0.15003542	-0.0965606	0.62736584	0.20462965	-0.2047291	0.62416205	0.017779257	-0.093018974	0.64767145	-0.18396271	0.014302206	0.64090906	-0.13075259	-0.012379269	1.0375619	0.0010608708	-0.069362915	1.1017275	0.17150963	-0.052895142	1.0925323	-0.15462279	0.011092175	0.96330463	0.010378003	-0.0064160185	1.0234435	-0.06053265	0.35983371	0.47059024	0.064470833	0.34828342	0.45260538	0.18335455	0.17749559	0.57984027	0.10848711	0.30404465	0.10730705	0.095377022	0.29140021	0.095500145	0.17668045	0.30309192	0.27462112	0.19670047	0.23170996	0.058357086	0.13861876	0.44788699	0.056524269	0.11561639
